<?xml version="1.0" encoding="utf-8"?>
<!-- Generator: Adobe Illustrator 26.0.2, SVG Export Plug-In . SVG Version: 6.00 Build 0)  -->
<svg version="1.1" id="Layer_1" xmlns="http://www.w3.org/2000/svg" xmlns:xlink="http://www.w3.org/1999/xlink" x="0px" y="0px"
	 viewBox="0 0 121.7 50.8" style="enable-background:new 0 0 121.7 50.8;" xml:space="preserve">
<style type="text/css">
	.st0{fill:#FFFFFF;}
</style>
<g>
	<path class="st0" d="M26.8,11.5c10.5,4.6,13.2,15.1,8.7,25.4c-2.1,4.9-5.3,7.9-9.5,10.2c-4.5,2.5-10.3,4.3-16.2,1.7
		C0,44.5-2.2,35.1,2.3,24.8c3.2-7.3,8.9-13.1,14.4-14.9c1.7-0.6,3.5-0.5,5.3-0.6c1-0.1,2,0,2.8,0.4c0.7,0.3,1.2,0.7,1.7,1.4
		l-0.2,0.2L26.8,11.5z M12.6,44.4c6.3,2.7,12.5-2.4,15.2-8.6c3.3-7.6,0.4-12.7-5.4-15.2c-0.8-0.4-1.7-0.7-2.5-0.9
		c-4.8,0.4-9.2,4.6-11.4,9.7C5.8,35.5,6.2,41.7,12.6,44.4z"/>
</g>
<g>
	<path class="st0" d="M46.5,30.9c-0.2,0-0.3,0.1-0.4,0.3c0,0.1,0,0.2,0,0.3c0,2-0.1,4,0,6c0,1.9,0.5,3.9,1.4,5.6
		c0.2,0.3,0.4,0.4,0.7,0c0.2-0.3,0.4-0.6,0.4-0.9c0.2-0.5,0.2-1.2,0.3-1.7c0.1-0.8,0.2-1.8,0.3-2.7c0-0.3,0.1-0.6,0.2-0.8
		c0.5-0.8,1.3-1.2,2.2-1c0.8,0.1,1.2,0.7,1.5,1.5c0,0,0,0.1,0,0.2c0.1,2.6,0.1,5.1-1.1,7.4c-0.6,1.3-1.4,2.4-2.6,3.2
		c-1,0.6-2,1-3.1,1c-1.1,0-2.2,0-3.1-0.3c-1.7-0.5-3-1.6-3.7-3.1c-0.6-1.3-1.1-2.8-1.4-4.2c-0.3-1.7-0.5-3.3-0.6-5
		c-0.1-1.4,0-2.8,0-4.3c0-0.4,0-1,0-1.5c0-0.5,0-0.6-0.6-0.6c-0.2,0-0.5,0-0.8-0.1c-0.3,0-0.6-0.2-1-0.3c-0.5-0.3-0.9-1.2-0.8-1.7
		c0.2-0.8,0.7-1.3,1.5-1.5c0.5,0,1,0,1.5,0c0.3,0,0.5-0.1,0.5-0.4c0-1.5,0.1-2.9,0.3-4.4c0.1-1.5,0.2-3,0.5-4.6
		c0.3-1.4,0.8-2.6,1.9-3.5c1.2-1.1,2.6-1.2,4.1-0.6c0.6,0.3,1.2,0.8,1.5,1.4c0.4,0.7,0.7,1.5,0.7,2.4c0,1.1,0,2.1-0.2,3.1
		c-0.1,1-0.1,2.1-0.3,3c0,1,0,2-0.2,3.1c-0.1,0.2,0.2,0.5,0.4,0.5c0.3,0,0.7,0,1.1,0c0.9,0,1.9,0,2.8,0c0.4,0,0.8,0.2,1.2,0.3
		c0.6,0.2,0.9,0.6,1.2,1.2c0.1,0.3,0.1,0.6,0,0.9c-0.2,0.6-0.6,1-1.3,1.3c-0.4,0.2-0.9,0.2-1.4,0.3c-0.6,0.1-1.3,0-2,0
		C47.8,30.9,47.1,30.9,46.5,30.9z"/>
</g>
<g>
	<path class="st0" d="M61.3,30.1c-0.2,0-0.3,0.2-0.4,0.3c0,0.1,0,0.2,0,0.3c0.2,2,0.3,4,0.6,6c0.3,1.9,0.9,3.8,2,5.5
		c0.2,0.3,0.4,0.3,0.7,0c0.2-0.4,0.3-0.7,0.3-1c0.1-0.6,0.1-1.2,0.2-1.7c0.1-0.8,0-1.8,0-2.7c0-0.3,0.1-0.6,0.2-0.9
		c0.4-0.9,1.1-1.3,2.1-1.2c0.8,0,1.2,0.6,1.7,1.4c0,0,0.1,0.1,0.1,0.2c0.4,2.5,0.7,5-0.3,7.5c-0.5,1.4-1.1,2.5-2.2,3.5
		c-0.9,0.7-1.9,1.2-3,1.4c-1.1,0.1-2.2,0.2-3.2,0c-1.7-0.4-3.1-1.2-4-2.7c-0.8-1.2-1.4-2.7-1.8-4.1c-0.5-1.6-0.8-3.3-1.1-4.9
		c-0.3-1.4-0.2-2.8-0.4-4.3c0-0.4-0.1-1-0.2-1.5c-0.1-0.5-0.1-0.6-0.7-0.6c-0.2,0-0.5,0.1-0.8,0c-0.3,0-0.7-0.1-1-0.2
		c-0.6-0.3-1.1-1.1-1-1.6c0.1-0.8,0.5-1.4,1.3-1.6c0.5-0.1,1-0.1,1.5-0.2c0.3,0,0.5-0.2,0.5-0.4c-0.1-1.5-0.2-2.9-0.1-4.4
		c-0.1-1.5-0.1-3,0-4.6c0.1-1.4,0.6-2.7,1.5-3.7c1.1-1.2,2.5-1.5,4-1c0.7,0.2,1.3,0.7,1.7,1.3c0.5,0.6,0.9,1.4,1,2.3
		c0.2,1.1,0.2,2,0.1,3.1c0,1,0.1,2.1,0,3.1c0.1,1,0.2,2,0.1,3.1c-0.1,0.2,0.2,0.5,0.5,0.4c0.3,0,0.7-0.1,1.1-0.1
		c0.9-0.1,1.9-0.2,2.8-0.3c0.4,0,0.9,0.1,1.3,0.2c0.7,0.1,1,0.5,1.4,1.1c0.1,0.3,0.2,0.6,0.1,0.9c-0.2,0.6-0.5,1.1-1.1,1.4
		c-0.4,0.2-0.9,0.3-1.4,0.4c-0.6,0.2-1.3,0.1-2,0.2C62.6,30,61.9,30,61.3,30.1z"/>
</g>
<g>
	<path class="st0" d="M91.2,46.8c-1.2,0-2.3-0.1-3.4-0.2c-0.4,0-0.8-0.2-1.2-0.3c-0.3-0.1-0.6-0.3-0.8-0.5c-0.6-0.8-1.2-1.5-1.6-2.3
		c-0.5-1.2-0.3-2.4,0.4-3.5c0.4-0.6,0.8-1.1,1.2-1.7c0.5-0.7,1-1.3,1.4-2c1.8-2.8,3.6-5.7,5.5-8.5c1.6-2.5,3.3-5.1,5.2-7.4
		c0.2-0.2,0.4-0.5,0.5-0.7c0.2-0.2,0.1-0.4-0.2-0.4c-0.3,0-0.5-0.1-0.8-0.1c-1.5,0-3-0.4-4.4-0.6c-0.7-0.1-1.4-0.3-2.2-0.4
		c-0.2,0-0.4-0.1-0.7-0.2c-0.6-0.3-0.9-0.8-0.9-1.4c0-0.7,0.2-1.2,0.8-1.5c0.5-0.3,1-0.3,1.6-0.2c1.3,0.2,2.7,0.4,4.1,0.6
		c1.5,0.2,2.9,0.3,4.3,0.4c0.4,0,0.8,0,1.2,0c1.1-0.1,2.1,0.1,3.1,0.4c2.4,0.8,3.4,3.5,2.1,5.6c-0.2,0.3-0.4,0.5-0.6,0.8
		c-2.9,3.3-5.4,7-7.8,10.8c-0.9,1.5-1.9,2.9-2.9,4.3c-1.1,1.6-2.1,3.3-3.2,4.9c-0.1,0.1,0,0.2,0.1,0.2c1,0,1.9,0,2.8,0
		c1.2,0,2.5,0,3.8,0c0.7,0,1.4,0.1,2,0.3c1,0.2,1.4,0.8,1.5,1.7c0.1,0.8-0.7,1.8-1.6,1.9c-0.3,0-0.6,0-0.8,0c-1.7,0-3.4,0-5,0
		c0,0,0,0,0,0C93.7,46.8,92.4,46.8,91.2,46.8z"/>
</g>
<g>
	<path class="st0" d="M69.1,29.7c0.7-2,1.7-3.8,3.4-5c1.7-1.3,3.7-1.9,5.9-1.3c1.7,0.4,2.9,1.5,3.9,2.6c0.6,0.8,0.9,1.6,1.1,2.4
		c0.4,1.2,0.7,2.5,0.8,3.8c0.1,2.3-0.7,4.1-2.4,5.5c-0.8,0.5-1.6,0.8-2.5,1c-1,0.1-1.1,0.2-0.6,1.3c0.3,1,0.7,1.9,1.5,2.6
		c0.3,0.3,0.5,0.4,0.9,0.6c0.2,0.2,0.4,0.2,0.4-0.1c0.2-0.6,0.4-1.1,0.5-1.7c0.2-0.6,0.3-1.3,0.7-1.7c0.7-1,2.5-1,3.1,0.1
		c0.3,0.4,0.6,0.8,0.5,1.4c0.3,1.7,0.1,3.2-0.6,4.8c-1.1,2.4-4,3.7-6.5,3.1c-2.5-0.5-4.5-1.8-6.2-3.4c-1.5-1.6-2.6-3.4-3.3-5.1
		C67.9,37,67.8,33.4,69.1,29.7z M79.5,30.8c-0.2-0.4-0.5-0.5-1-0.6c-0.5,0.1-0.8,0.3-0.9,0.8c-0.5,1.2-0.4,2.4-0.2,3.6
		c0.1,0.2,0.3,0.3,0.5,0.3c0.6-0.1,1.2-0.3,1.7-0.5c0.5-0.4,0.8-0.9,0.7-1.5c-0.1-0.4-0.2-0.9-0.2-1.1C79.7,31.3,79.6,31,79.5,30.8z
		"/>
</g>
<g>
	<path class="st0" d="M93.1,39.4c10.1,4.7,15.6-0.3,17.7-2.7c9.4-10.9,3.1-28.4-4.3-35.1c-0.3,0.1-1.2-1-0.8-1.5
		c10.4,3.3,15.8,18.9,15.9,27.6C122.2,71,60.7,40.2,93.1,39.4z"/>
</g>
<g>
	<path class="st0" d="M34.1,25.2c3-3.1,8.1,1.3,19.1,0.5c9.9-0.5,10.3-1,14.7-1.5c4.3,0.8,1.3,4.3-1,5.3c-6,3.8-26.9,1.4-34.2,0.4
		C32.6,27.4,33.4,26,34.1,25.2z"/>
</g>
<g>
	<path class="st0" d="M91.5,14.9c-1-0.2-3.7-0.6-5.4-0.3c-1,0.2-1.7,3.2-1.7,4.3c0,0.6,0.1,2,0.2,2.3c0.8,3,9.5,1.3,12.8,1.3
		c0.8,0,1.5-0.4,1.9-1.1l0.4-0.7c0.8-1.4,0-3.1-1.6-3.3c-3.3-0.5-4.2-1.2-6.2-2.2C91.8,15.1,91.7,14.9,91.5,14.9z"/>
</g>
<g>
	<path class="st0" d="M15.8,22.7c-1.2,0.2-2,1.4-2.2,2.4c-0.2,0.8-0.1,2.2,0.7,2.8c1.4,1.1,4.5-0.1,4.8-1.9
		C19.4,24.4,17.6,22.4,15.8,22.7z"/>
</g>
<g>
	<path class="st0" d="M97.7,34.1c-1.3,2.4-1.3,4.1-1.2,4.8c0,0.3,0.1,0.5,0.1,0.5c0.8,2,4.9,1.8,5.7,1.8c0,0.6-0.2,1.1-0.4,1.4
		c-1.6,2.2-9.4,0.7-10-2.4C91.6,38.3,94,35.7,97.7,34.1z"/>
</g>
</svg>
